<svg version="1.1" id="Layer_1" xmlns="http://www.w3.org/2000/svg" xmlns:xlink="http://www.w3.org/1999/xlink" x="0px" y="0px"
	 width="100%" viewBox="0 0 1080 1080" enable-background="new 0 0 1080 1080" xml:space="preserve">
<path fill="#485774" opacity="1.000000" stroke="none" 
	d="
M1006.000000,1081.000000 
	C670.666687,1081.000000 335.833344,1081.000000 1.000000,1081.000000 
	C1.000000,721.000000 1.000000,361.000000 1.000000,1.000000 
	C361.000000,1.000000 721.000000,1.000000 1081.000000,1.000000 
	C1081.000000,361.000000 1081.000000,721.000000 1081.000000,1081.000000 
	C1056.166626,1081.000000 1031.333374,1081.000000 1006.000000,1081.000000 
M246.472382,538.326050 
	C248.317245,537.885620 250.162125,537.445190 252.700912,537.069458 
	C260.020386,537.162903 261.291931,536.501404 260.804840,529.330139 
	C260.313751,522.100586 259.238861,514.688904 256.882751,507.889618 
	C255.432938,503.705688 251.102356,500.520020 247.691208,496.337677 
	C238.711075,490.050415 229.811829,483.583221 217.263885,483.065247 
	C212.461899,483.031281 207.659927,482.997314 202.552750,482.260223 
	C190.332062,483.529572 180.355164,489.667969 170.220444,497.052460 
	C167.814728,500.035675 165.409027,503.018890 162.630081,506.597137 
	C161.042969,514.127075 159.306244,521.629639 157.921417,529.196655 
	C156.998627,534.238892 159.329498,536.780334 164.571777,537.429688 
	C169.283707,538.013367 174.011215,540.760803 178.026077,536.847717 
	C180.926849,558.583557 180.967529,580.277771 176.732483,601.855042 
	C175.802719,606.592163 177.277237,608.801819 182.805237,609.007874 
	C187.680115,609.943542 192.525436,611.402588 197.437515,611.680237 
	C203.353943,612.014587 209.330917,611.415344 215.274597,611.090576 
	C221.170547,610.768433 227.057709,610.285156 233.743546,609.835083 
	C244.684509,607.067566 243.713165,608.948669 241.775696,597.892212 
	C238.611603,579.835815 238.623795,561.821655 240.416580,543.722168 
	C240.610947,541.760010 242.089066,539.924927 243.370758,538.644531 
	C244.257248,538.549194 245.143738,538.453857 246.472382,538.326050 
M382.702728,518.499390 
	C383.000427,519.718140 383.298157,520.936890 383.772125,522.948547 
	C383.848358,524.299011 383.924591,525.649475 383.686188,527.555542 
	C384.035980,529.074707 384.385773,530.593872 384.875946,532.880676 
	C384.922943,533.919739 384.969940,534.958862 384.715454,536.501099 
	C385.014313,537.717590 385.313141,538.934082 385.796509,540.941956 
	C385.880737,542.292480 385.964966,543.643066 385.740143,545.493958 
	C386.074310,546.699463 386.408447,547.904968 386.889526,549.877441 
	C386.938049,550.916809 386.986572,551.956116 386.736542,553.500305 
	C387.074097,554.702881 387.411652,555.905457 387.896545,557.821655 
	C387.925476,558.548401 387.954407,559.275208 387.676971,560.502258 
	C387.997711,561.716064 388.318451,562.929871 388.816559,564.899475 
	C388.894745,565.930786 388.972931,566.962158 388.764343,568.428162 
	C389.040588,569.337463 389.316833,570.246826 389.781586,571.972412 
	C389.867767,573.646545 389.953949,575.320679 389.742828,577.426575 
	C390.018860,578.338806 390.294861,579.250977 390.798492,580.914551 
	C391.795868,587.125122 396.691284,584.393250 399.913910,584.536926 
	C407.760620,584.886841 407.771790,584.636414 409.055634,576.927490 
	C409.048218,576.285828 409.040802,575.644104 409.033875,574.142456 
	C409.611206,568.104797 410.188538,562.067200 411.094299,555.706970 
	C411.066650,555.138306 411.039032,554.569580 410.978485,553.166077 
	C411.238708,550.448547 411.498932,547.731079 412.402283,545.026611 
	C412.829315,545.062927 413.256378,545.099243 413.805603,545.999023 
	C413.870178,548.332703 413.934784,550.666321 413.758240,553.374634 
	C414.098297,553.950317 414.438354,554.525940 415.036102,555.885681 
	C415.013153,557.258484 414.990204,558.631287 414.645233,560.604431 
	C414.992676,562.445923 415.340118,564.287476 415.814545,566.933655 
	C415.869843,568.289917 415.925110,569.646179 415.667755,571.498657 
	C415.943970,572.726013 416.220154,573.953369 416.721405,575.986877 
	C416.813049,577.658081 416.904724,579.329224 416.728180,581.357117 
	C417.010834,581.960205 417.293488,582.563354 418.139221,583.745300 
	C422.368042,584.033325 426.597382,584.313416 430.825470,584.612305 
	C433.797577,584.822388 434.902710,583.211609 435.191040,580.481140 
	C435.589081,576.710938 436.186859,572.961792 437.034790,568.943115 
	C437.045319,568.297119 437.055878,567.651123 437.073517,566.163269 
	C437.602661,562.175415 438.131836,558.187561 439.002472,553.943481 
	C438.997009,553.295288 438.991577,552.647034 439.007324,551.162659 
	C439.221375,549.507996 439.435394,547.853333 439.992889,545.943542 
	C439.994141,545.295654 439.995422,544.647705 440.008820,543.163452 
	C440.219238,541.508545 440.429688,539.853577 441.024658,537.861084 
	C441.042145,536.909424 441.059631,535.957764 441.070374,534.169617 
	C441.248291,532.510498 441.426208,530.851440 441.986633,528.851807 
	C442.001038,527.901978 442.015411,526.952087 442.015564,525.144958 
	C442.217072,523.162537 442.418610,521.180054 443.021393,518.872925 
	C443.037445,517.917175 443.053528,516.961426 443.072815,515.169434 
	C443.243988,513.510193 443.415161,511.850891 443.987152,509.867188 
	C444.004547,508.912506 444.021973,507.957825 444.025665,506.145508 
	C444.231323,504.163940 444.436981,502.182343 445.059113,499.798798 
	C444.659454,498.567017 444.259796,497.335205 442.988220,495.915100 
	C439.565948,496.235840 436.143677,496.556580 432.197723,497.151245 
	C432.119904,498.433197 432.042053,499.715118 431.966766,501.855347 
	C431.773804,503.837219 431.580841,505.819092 430.966705,508.107269 
	C430.973816,509.071198 430.980927,510.035095 430.998077,511.857666 
	C430.797882,513.839600 430.597687,515.821594 429.982025,518.112122 
	C429.981598,519.074219 429.981171,520.036377 430.001648,521.857056 
	C429.806305,523.840027 429.610962,525.822998 428.991913,528.107666 
	C428.992218,529.071594 428.992493,530.035522 429.017853,531.838013 
	C428.865723,533.504761 428.713562,535.171509 428.104614,537.191406 
	C428.066406,538.460693 428.028229,539.729919 428.007660,541.837463 
	C427.850800,543.502136 427.693939,545.166748 427.076538,547.181335 
	C427.047150,548.453918 427.017761,549.726501 426.991974,551.811462 
	C426.875153,553.158813 426.758301,554.506165 426.133881,555.852417 
	C425.631073,555.829773 425.128296,555.807190 424.458862,554.969788 
	C424.330994,553.310120 424.203094,551.650391 424.349121,549.511414 
	C424.126831,548.665955 423.904541,547.820435 423.529694,546.220520 
	C423.371429,544.144775 423.213165,542.069031 423.319336,539.618958 
	C423.155640,539.074585 422.991943,538.530151 422.625885,537.215759 
	C422.434326,534.808411 422.242767,532.401062 422.311859,529.663330 
	C422.123871,529.038391 421.935913,528.413391 421.566772,526.941589 
	C421.392059,524.626038 421.217346,522.310425 421.308960,519.666626 
	C421.117828,519.040894 420.926697,518.415161 420.538910,516.945923 
	C420.369293,514.629395 420.199677,512.312805 420.287323,509.665649 
	C420.088135,509.042328 419.888916,508.419006 419.518860,506.946533 
	C419.351898,504.630310 419.184937,502.314056 419.284088,499.657501 
	C419.059265,499.037720 418.834412,498.417969 418.089752,497.128326 
	C412.230286,494.242859 407.946838,495.248413 406.115051,500.117371 
	C406.075043,501.078125 406.035004,502.038849 406.006744,503.838715 
	C405.868561,505.507782 405.730377,507.176880 405.100159,509.298492 
	C405.053802,511.531342 405.007446,513.764221 404.972931,516.772888 
	C404.853027,517.799072 404.733154,518.825195 404.151276,520.199951 
	C404.103699,521.466858 404.056152,522.733765 404.015747,524.839844 
	C403.872925,526.507874 403.730103,528.175964 403.096283,530.266296 
	C403.044556,532.176086 402.992828,534.085876 402.968842,536.834351 
	C402.832703,538.501953 402.696564,540.169495 402.069641,542.259705 
	C402.027039,544.171692 401.984436,546.083679 401.957672,548.806824 
	C401.832275,550.149414 401.706848,551.492065 400.868805,552.996155 
	C400.148407,553.062561 399.428009,553.129028 398.577942,552.366516 
	C397.397339,539.576233 396.216736,526.785889 395.288788,513.617126 
	C395.114044,513.071289 394.939270,512.525452 394.618256,511.186859 
	C394.251648,507.915771 393.896271,504.643402 393.515961,501.373932 
	C392.875519,495.867645 392.384491,495.724152 384.967041,495.842651 
	C380.160431,495.919434 380.928192,499.063965 380.681335,502.506317 
	C381.013641,503.715118 381.345947,504.923889 381.841309,506.837494 
	C381.896179,507.558075 381.951050,508.278656 381.723511,509.431641 
	C381.992798,510.344696 382.262085,511.257782 382.732147,512.983459 
	C382.824402,514.655273 382.916656,516.327026 382.702728,518.499390 
M535.028931,558.966309 
	C535.215759,565.278687 535.374695,571.592102 535.596497,577.903259 
	C535.870483,585.702087 535.891296,585.569336 543.571899,585.464783 
	C546.947876,585.418823 548.381836,584.356079 548.265564,580.799866 
	C547.977417,571.984680 547.964233,563.160522 547.849487,554.339783 
	C547.827637,552.661194 547.846375,550.982056 547.846375,549.303223 
	C549.537598,550.220642 550.212830,551.293884 550.625977,552.459961 
	C553.682678,561.088135 556.711853,569.726257 559.700745,578.378235 
	C562.177246,585.547058 562.409241,585.733948 570.010742,585.333191 
	C575.236755,585.057617 575.962036,584.209534 574.098938,579.228088 
	C570.660461,570.034607 567.082947,560.887634 563.297058,551.832642 
	C561.891479,548.470886 562.121216,546.327637 564.982727,543.662903 
	C567.663513,541.166565 570.773499,537.620850 571.035156,534.325745 
	C571.763550,525.153198 571.888306,515.773499 570.747864,506.663849 
	C569.892944,499.835297 563.507019,495.842407 556.520691,495.673828 
	C551.695984,495.557404 546.866150,495.645599 542.038574,495.659882 
	C535.234314,495.679993 534.999268,495.883667 535.001526,502.652222 
	C535.007751,521.124695 535.048157,539.597229 535.028931,558.966309 
M498.552338,580.256836 
	C499.046478,576.630188 499.541443,573.003662 500.034576,569.376892 
	C501.120392,561.391174 501.121429,561.557556 509.149719,561.489746 
	C512.549011,561.461060 513.808594,562.594727 514.067261,565.953674 
	C514.436890,570.753662 515.172546,575.540955 516.027588,580.284058 
	C517.120300,586.345642 522.043823,584.304016 525.681824,584.330200 
	C529.899414,584.360596 528.507751,581.124695 528.208191,578.832031 
	C525.104858,555.079224 522.061157,531.317810 518.771606,507.590546 
	C517.103210,495.556702 516.890198,495.746765 504.466888,495.610382 
	C500.150391,495.562988 498.185883,496.789978 497.666199,501.313965 
	C496.320129,513.032043 494.578247,524.706299 492.890381,536.383057 
	C490.736481,551.283813 488.461029,566.166992 486.318390,581.069397 
	C486.194183,581.933411 486.512787,583.175110 487.101227,583.771729 
	C489.330383,586.031738 496.917999,584.121704 498.552338,580.256836 
M755.651917,495.393158 
	C747.657410,495.378204 739.658936,495.507324 731.670227,495.284698 
	C727.934692,495.180603 726.487671,496.717743 726.607117,500.242462 
	C726.663391,501.901520 726.587402,503.564819 726.633057,505.224487 
	C726.971558,517.525452 727.479797,529.824097 727.632019,542.127197 
	C727.790283,554.920898 727.676453,567.719482 727.532349,580.514343 
	C727.492493,584.057495 729.096008,585.309875 732.375000,585.158203 
	C740.002991,584.805298 747.630249,584.340637 755.262634,584.216492 
	C759.042786,584.154968 759.655701,582.254456 759.455139,579.107056 
	C759.261963,576.074280 759.809692,572.893127 755.053467,573.103760 
	C750.275879,573.315308 745.481628,573.150269 740.821716,573.150269 
	C740.550903,572.045166 740.344177,571.569336 740.330078,571.087830 
	C740.174500,565.763184 740.016663,560.438171 739.921997,555.112183 
	C739.738708,544.803589 739.751160,544.682373 750.120422,544.321899 
	C753.653076,544.199158 754.797668,542.794434 754.607300,539.434448 
	C754.431580,536.332764 754.773804,533.165588 750.227478,533.230957 
	C746.943848,533.278198 743.658997,533.240173 740.529968,533.240173 
	C740.170227,532.266296 739.857605,531.809631 739.854431,531.350830 
	C739.822327,526.696472 739.772522,522.040405 739.858337,517.387268 
	C740.061279,506.387543 740.091248,506.463074 751.319763,506.280243 
	C753.488098,506.244965 757.440674,505.516785 757.495544,504.853882 
	C757.746521,501.820435 756.903442,498.696503 755.651917,495.393158 
M458.710205,495.745239 
	C450.247162,495.759186 449.932312,496.086304 450.378601,504.441986 
	C450.405212,504.940002 450.517029,505.434357 450.531067,505.932068 
	C450.873840,518.068726 451.362274,530.203857 451.502625,542.343018 
	C451.648651,554.977112 451.516510,567.615723 451.377777,580.250977 
	C451.335297,584.124023 452.993103,585.727234 456.800568,585.520325 
	C463.929779,585.132751 471.062836,584.672852 478.198120,584.596558 
	C482.175934,584.553894 483.365723,582.899719 483.355408,579.121094 
	C483.344727,575.200317 482.259888,573.179138 477.934326,573.435913 
	C473.515808,573.698242 469.069580,573.494080 464.222992,573.494080 
	C464.222992,563.573059 464.222992,554.468994 464.222992,544.671326 
	C467.333282,544.671326 470.466156,544.486877 473.567963,544.718567 
	C477.335388,544.999939 478.314880,543.383545 478.500336,539.783264 
	C478.753845,534.861877 476.910980,533.057190 472.158173,533.623291 
	C470.352203,533.838379 468.391144,534.016296 466.702454,533.522034 
	C465.502533,533.170898 463.803711,531.698792 463.763062,530.670166 
	C463.494415,523.868896 463.627960,517.052185 463.600281,510.240601 
	C463.590332,507.789276 464.565979,506.622620 467.197418,506.742706 
	C470.687469,506.902039 474.206512,506.555939 477.684906,506.811157 
	C482.989380,507.200317 481.822144,503.352386 482.174103,500.430573 
	C482.586243,497.008942 481.150970,495.587341 477.643219,495.687775 
	C471.651978,495.859222 465.652466,495.741211 458.710205,495.745239 
M783.499756,584.143799 
	C786.997986,584.138672 790.503479,583.990234 793.992493,584.166809 
	C797.858459,584.362488 798.375305,582.157715 798.194214,579.087158 
	C798.016357,576.070740 798.488342,572.860779 793.750610,573.069214 
	C789.001282,573.278076 784.235718,573.115112 779.008423,573.115112 
	C779.008423,563.183777 779.008423,553.959412 779.008423,544.211670 
	C782.373230,544.211670 785.523926,543.989075 788.629639,544.267700 
	C792.551819,544.619751 793.491882,542.798828 793.368530,539.287476 
	C793.245422,535.782166 792.984009,532.884399 788.325928,533.164001 
	C785.237183,533.349487 782.128235,533.199158 778.461243,533.199158 
	C778.461243,524.652222 778.355042,516.699707 778.615784,508.759247 
	C778.643677,507.909088 780.755737,506.545807 781.996460,506.428131 
	C785.464294,506.099304 789.011902,506.006897 792.473389,506.358948 
	C797.689087,506.889404 796.808167,503.323730 797.086243,500.288788 
	C797.419556,496.651825 795.987366,495.115936 792.252197,495.217468 
	C785.760193,495.393982 779.260254,495.278381 772.763672,495.286682 
	C765.253296,495.296295 765.133545,495.298401 765.220581,502.673950 
	C765.524780,528.457092 765.998596,554.238586 766.204407,580.022278 
	C766.240417,584.530945 768.395081,585.445190 772.132141,585.086975 
	C775.594360,584.755005 779.059814,584.457642 783.499756,584.143799 
M688.838623,565.491272 
	C688.783936,569.974426 688.850891,574.463379 688.640381,578.939209 
	C688.427734,583.462097 690.607361,584.533142 694.760254,584.331848 
	C698.615662,584.144897 701.242188,583.617310 701.026550,578.848633 
	C700.673523,571.041260 700.834534,563.209290 700.430054,555.405823 
	C699.859497,544.399780 700.304138,543.733643 710.917114,543.301331 
	C711.083557,543.294556 711.251099,543.286316 711.416931,543.296692 
	C715.441223,543.548035 716.083313,541.077820 715.932800,537.825256 
	C715.790894,534.759155 715.450806,532.090332 711.313721,532.293823 
	C708.025879,532.455566 704.723755,532.326477 700.646240,532.326477 
	C700.646240,524.508728 700.429871,517.358521 700.838806,510.244293 
	C700.915527,508.909027 703.351929,506.896790 704.941040,506.628693 
	C708.347473,506.054016 711.913513,506.334961 715.410706,506.414520 
	C718.714722,506.489746 720.557495,505.310425 720.039001,501.715515 
	C719.621887,498.823608 720.815063,495.089294 715.508545,495.298767 
	C708.020325,495.594330 700.509949,495.502350 693.013794,495.345276 
	C689.509399,495.271851 688.215942,496.707214 688.337891,500.085327 
	C688.559875,506.235077 688.677124,512.390442 688.726929,518.544312 
	C688.850891,533.862793 688.912415,549.181824 688.838623,565.491272 
M922.435913,502.850922 
	C922.635010,495.138702 922.635010,495.136780 914.959900,495.141174 
	C906.294495,495.146149 897.628845,495.122559 888.963684,495.174133 
	C883.671692,495.205627 883.071045,496.174286 883.304749,501.951233 
	C883.490723,506.549805 885.399841,507.551849 889.720093,506.450531 
	C892.946167,505.628113 896.546326,505.370483 896.600830,510.696808 
	C896.835266,533.629700 897.216980,556.561157 897.461365,579.494019 
	C897.490662,582.238525 897.475708,585.022827 901.195129,584.152466 
	C904.399597,583.402710 910.036804,586.819214 910.006470,579.603943 
	C909.949707,566.112854 909.930603,552.621582 909.912903,539.130371 
	C909.898804,528.361023 909.910095,517.591614 909.910095,506.163879 
	C912.852539,506.163879 915.517395,506.454315 918.073669,506.053040 
	C919.566223,505.818756 920.885193,504.478699 922.435913,502.850922 
M634.170105,518.489868 
	C634.516663,538.912537 634.894348,559.334778 635.173157,579.758362 
	C635.210693,582.513428 635.187317,584.649658 638.971191,584.581360 
	C647.058350,584.435364 647.779846,584.126160 647.759399,579.331970 
	C647.670959,558.562256 647.593689,537.792542 647.522827,517.022827 
	C647.512085,513.873901 646.382202,509.781891 647.926941,507.857788 
	C649.299683,506.148010 653.658508,506.711121 656.715027,506.511139 
	C660.059326,506.292206 660.348755,504.000610 660.186768,501.582153 
	C660.036682,499.341766 661.434143,495.716614 657.631165,495.632172 
	C646.323425,495.381104 634.977051,495.179260 623.703796,495.884430 
	C619.147217,496.169495 621.257385,500.980835 621.443787,503.751221 
	C621.524170,504.945587 623.790588,506.967224 625.044495,506.952484 
	C634.210571,506.844818 634.208801,506.711639 634.159058,516.014709 
	C634.156372,516.513977 634.159790,517.013306 634.170105,518.489868 
M803.984802,535.230347 
	C804.130615,550.038452 804.389038,564.846924 804.333496,579.654297 
	C804.321472,582.875671 805.031799,584.223999 808.398682,584.164795 
	C816.388611,584.024414 824.384827,584.002258 832.374146,584.157349 
	C836.640564,584.240173 836.734009,581.598816 836.700928,578.554626 
	C836.668579,575.578308 836.754761,572.815491 832.383667,573.027466 
	C827.456970,573.266418 822.509705,573.082520 816.911865,573.082520 
	C816.911865,561.431946 816.977966,550.466125 816.894775,539.501404 
	C816.795166,526.363098 816.543091,513.226074 816.407043,500.087982 
	C816.341980,493.807800 811.734985,495.466675 808.158386,495.236511 
	C803.933533,494.964630 803.786072,497.774109 803.806519,500.824524 
	C803.881409,511.978088 803.918640,523.131897 803.984802,535.230347 
M878.114685,555.499695 
	C878.035034,538.184143 877.844177,520.868042 877.922913,503.553192 
	C877.961914,494.970062 878.034851,494.972656 869.496643,495.105347 
	C865.875977,495.161652 864.870117,496.684387 865.025330,499.983948 
	C865.282837,505.456268 865.420776,510.939301 865.419739,516.417786 
	C865.415710,537.369812 865.361084,558.322021 865.264099,579.273804 
	C865.244324,583.552002 867.540894,584.621460 871.312988,584.335083 
	C874.851807,584.066345 878.329468,584.421021 878.098816,578.966125 
	C877.782715,571.490845 878.079956,563.989624 878.114685,555.499695 
M602.956421,538.171814 
	C602.971802,551.799316 603.045105,565.427124 602.966431,579.054138 
	C602.943420,583.037842 604.568176,585.132935 608.583374,584.596008 
	C611.720032,584.176453 615.859924,585.350891 615.822144,579.566284 
	C615.649536,553.142883 615.638977,526.717407 615.776917,500.293762 
	C615.807312,494.467651 611.978210,495.714722 608.637756,495.542969 
	C605.145630,495.363434 602.594482,495.549438 602.742188,500.412018 
	C603.115051,512.692261 602.972595,524.988220 602.956421,538.171814 
M326.123596,519.501099 
	C326.081329,499.851471 326.043762,480.201813 325.963501,460.552338 
	C325.961853,460.151062 325.482330,459.737091 325.184875,459.361420 
	C325.105865,459.261688 324.873566,459.251160 324.713776,459.257019 
	C324.561707,459.262573 324.412354,459.343018 324.334503,459.367584 
	C324.334503,513.876831 324.334503,568.360779 324.334503,622.844727 
	C324.930847,622.847412 325.527161,622.850098 326.123505,622.852783 
	C326.123505,588.735596 326.123505,554.618347 326.123596,519.501099 
z"/>
<path fill="#EBE0EC" opacity="1.000000" stroke="none" 
	d="
M385.016968,535.997925 
	C384.969940,534.958862 384.922943,533.919739 384.874023,532.123596 
	C384.581696,529.911011 384.291290,528.455444 384.000854,526.999939 
	C383.924591,525.649475 383.848358,524.299011 383.766876,522.200317 
	C383.510712,520.301025 383.259827,519.149902 383.008942,517.998840 
	C382.916656,516.327026 382.824402,514.655273 382.730438,512.254395 
	C382.487793,510.683289 382.246857,509.841248 382.005920,508.999237 
	C381.951050,508.278656 381.896179,507.558075 381.818146,506.131714 
	C381.525726,504.284485 381.256470,503.143036 380.987244,502.001587 
	C380.928192,499.063965 380.160431,495.919434 384.967041,495.842651 
	C392.384491,495.724152 392.875519,495.867645 393.515961,501.373932 
	C393.896271,504.643402 394.251648,507.915771 394.583588,511.776489 
	C394.711304,512.909241 394.873718,513.452454 395.036102,513.995605 
	C396.216736,526.785889 397.397339,539.576233 398.560669,553.207275 
	C398.887360,557.098145 399.231354,560.148315 399.575317,563.198425 
	C400.041565,563.158447 400.507812,563.118469 400.974060,563.078491 
	C401.176514,559.663879 401.378967,556.249268 401.581421,552.834656 
	C401.706848,551.492065 401.832275,550.149414 402.116821,548.053833 
	C402.370789,545.479614 402.465607,543.658386 402.560394,541.837097 
	C402.696564,540.169495 402.832703,538.501953 403.122742,536.068237 
	C403.380188,533.482788 403.483704,531.663391 403.587250,529.843994 
	C403.730103,528.175964 403.872925,526.507874 404.192871,524.111694 
	C404.451080,522.206177 404.532166,521.028809 404.613251,519.851379 
	C404.733154,518.825195 404.853027,517.799072 405.158966,516.039429 
	C405.427399,513.152588 405.509796,510.999268 405.592194,508.845947 
	C405.730377,507.176880 405.868561,505.507782 406.190857,503.145020 
	C406.435486,501.579468 406.495972,500.707642 406.556458,499.835785 
	C407.946838,495.248413 412.230286,494.242859 418.284546,497.748566 
	C418.658875,498.911804 418.838440,499.454834 419.017975,499.997833 
	C419.184937,502.314056 419.351898,504.630310 419.506409,507.649872 
	C419.672638,508.900909 419.851349,509.448578 420.030060,509.996277 
	C420.199677,512.312805 420.369293,514.629395 420.545288,517.646851 
	C420.715302,518.896851 420.878967,519.445862 421.042633,519.994873 
	C421.217346,522.310425 421.392059,524.626038 421.568237,527.644592 
	C421.730194,528.896301 421.890686,529.445007 422.051178,529.993713 
	C422.242767,532.401062 422.434326,534.808411 422.621582,537.794006 
	C422.763123,538.912598 422.908997,539.452942 423.054871,539.993286 
	C423.213165,542.069031 423.371429,544.144775 423.502258,546.843018 
	C423.674988,548.307312 423.875122,549.148987 424.075256,549.990723 
	C424.203094,551.650391 424.330994,553.310120 424.421204,555.734863 
	C424.629028,558.333252 424.874481,560.166504 425.119934,561.999817 
	C425.449341,561.996094 425.778717,561.992371 426.108124,561.988647 
	C426.285919,559.943604 426.463684,557.898560 426.641479,555.853516 
	C426.758301,554.506165 426.875153,553.158813 427.169434,551.094604 
	C427.410278,549.195679 427.473663,548.013550 427.537079,546.831421 
	C427.693939,545.166748 427.850800,543.502136 428.187134,541.112183 
	C428.431519,539.204041 428.496490,538.021179 428.561462,536.838257 
	C428.713562,535.171509 428.865723,533.504761 429.185059,531.136353 
	C429.373383,529.558472 429.394501,528.682251 429.415588,527.805969 
	C429.610962,525.822998 429.806305,523.840027 430.174438,521.146118 
	C430.363983,519.557983 430.380768,518.680725 430.397522,517.803528 
	C430.597687,515.821594 430.797882,513.839600 431.170532,511.145447 
	C431.357971,509.555817 431.372925,508.678375 431.387878,507.800964 
	C431.580841,505.819092 431.773804,503.837219 432.151733,501.125702 
	C432.464966,499.223145 432.593201,498.050201 432.721436,496.877319 
	C436.143677,496.556580 439.565948,496.235840 443.534210,496.413635 
	C444.267700,498.008392 444.455170,499.104584 444.642670,500.200775 
	C444.436981,502.182343 444.231323,504.163940 443.855652,506.857941 
	C443.652527,508.444122 443.619415,509.317871 443.586304,510.191620 
	C443.415161,511.850891 443.243988,513.510193 442.896606,515.871155 
	C442.686981,517.447815 442.653564,518.322693 442.620117,519.197632 
	C442.418610,521.180054 442.217072,523.162537 441.854370,525.862549 
	C441.663513,527.450806 441.633820,528.321594 441.604126,529.192322 
	C441.426208,530.851440 441.248291,532.510498 440.898682,534.872925 
	C440.698029,536.450439 440.669098,537.324524 440.640137,538.198669 
	C440.429688,539.853577 440.219238,541.508545 439.834930,543.823486 
	C439.657166,545.055176 439.653290,545.626953 439.649414,546.198669 
	C439.435394,547.853333 439.221375,549.507996 438.830841,551.823608 
	C438.656555,553.056274 438.658752,553.627991 438.660980,554.199707 
	C438.131836,558.187561 437.602661,562.175415 436.904236,566.826599 
	C436.723022,568.061157 436.711029,568.632446 436.699066,569.203674 
	C436.186859,572.961792 435.589081,576.710938 435.191040,580.481140 
	C434.902710,583.211609 433.797577,584.822388 430.825470,584.612305 
	C426.597382,584.313416 422.368042,584.033325 417.892456,583.166504 
	C417.429260,582.058594 417.212799,581.529480 416.996368,581.000427 
	C416.904724,579.329224 416.813049,577.658081 416.696289,575.233337 
	C416.440918,573.320679 416.210632,572.161560 415.980347,571.002441 
	C415.925110,569.646179 415.869843,568.289917 415.820404,566.139404 
	C415.539917,563.564758 415.253571,561.784424 414.967255,560.004089 
	C414.990204,558.631287 415.013153,557.258484 414.918030,555.202209 
	C414.533142,554.012512 414.266266,553.506226 413.999390,553.000000 
	C413.934784,550.666321 413.870178,548.332703 413.819763,545.198853 
	C413.638489,542.965881 413.443054,541.533020 413.247620,540.100098 
	C412.841003,540.149231 412.434357,540.198303 412.027710,540.247375 
	C411.938202,541.836121 411.848694,543.424805 411.759155,545.013550 
	C411.498932,547.731079 411.238708,550.448547 410.849121,553.750122 
	C410.735138,554.899353 410.750519,555.464417 410.765900,556.029541 
	C410.188538,562.067200 409.611206,568.104797 408.874146,574.817810 
	C408.724640,576.063721 408.734833,576.634338 408.744995,577.204895 
	C407.771790,584.636414 407.760620,584.886841 399.913910,584.536926 
	C396.691284,584.393250 391.795868,587.125122 390.752991,580.214539 
	C390.485016,578.674622 390.262573,577.834717 390.040131,576.994812 
	C389.953949,575.320679 389.867767,573.646545 389.769196,571.240479 
	C389.521576,569.670166 389.286346,568.831787 389.051117,567.993469 
	C388.972931,566.962158 388.894745,565.930786 388.802582,564.170654 
	C388.520203,562.295227 388.251770,561.148560 387.983337,560.001953 
	C387.954407,559.275208 387.925476,558.548401 387.893738,557.112671 
	C387.605652,555.267639 387.320374,554.131592 387.035095,552.995483 
	C386.986572,551.956116 386.938049,550.916809 386.885223,549.142090 
	C386.603668,547.269043 386.326416,546.131287 386.049194,544.993591 
	C385.964966,543.643066 385.880737,542.292480 385.788574,540.195618 
	C385.526093,538.298828 385.271515,537.148376 385.016968,535.997925 
z"/>
<path fill="#ECE1ED" opacity="1.000000" stroke="none" 
	d="
M535.052002,558.518005 
	C535.048157,539.597229 535.007751,521.124695 535.001526,502.652222 
	C534.999268,495.883667 535.234314,495.679993 542.038574,495.659882 
	C546.866150,495.645599 551.695984,495.557404 556.520691,495.673828 
	C563.507019,495.842407 569.892944,499.835297 570.747864,506.663849 
	C571.888306,515.773499 571.763550,525.153198 571.035156,534.325745 
	C570.773499,537.620850 567.663513,541.166565 564.982727,543.662903 
	C562.121216,546.327637 561.891479,548.470886 563.297058,551.832642 
	C567.082947,560.887634 570.660461,570.034607 574.098938,579.228088 
	C575.962036,584.209534 575.236755,585.057617 570.010742,585.333191 
	C562.409241,585.733948 562.177246,585.547058 559.700745,578.378235 
	C556.711853,569.726257 553.682678,561.088135 550.625977,552.459961 
	C550.212830,551.293884 549.537598,550.220642 547.846375,549.303223 
	C547.846375,550.982056 547.827637,552.661194 547.849487,554.339783 
	C547.964233,563.160522 547.977417,571.984680 548.265564,580.799866 
	C548.381836,584.356079 546.947876,585.418823 543.571899,585.464783 
	C535.891296,585.569336 535.870483,585.702087 535.596497,577.903259 
	C535.374695,571.592102 535.215759,565.278687 535.052002,558.518005 
M554.487122,536.060913 
	C559.000977,534.937500 560.521667,531.901550 560.200684,527.481689 
	C559.971985,524.333130 560.032104,521.163025 559.983154,518.002197 
	C559.838989,508.700745 556.650269,506.219543 547.728943,508.240417 
	C547.728943,517.536011 547.728943,526.762695 547.728943,536.254028 
	C550.151855,536.254028 551.938416,536.254028 554.487122,536.060913 
z"/>
<path fill="#EBE0ED" opacity="1.000000" stroke="none" 
	d="
M498.479492,580.650208 
	C496.917999,584.121704 489.330383,586.031738 487.101227,583.771729 
	C486.512787,583.175110 486.194183,581.933411 486.318390,581.069397 
	C488.461029,566.166992 490.736481,551.283813 492.890381,536.383057 
	C494.578247,524.706299 496.320129,513.032043 497.666199,501.313965 
	C498.185883,496.789978 500.150391,495.562988 504.466888,495.610382 
	C516.890198,495.746765 517.103210,495.556702 518.771606,507.590546 
	C522.061157,531.317810 525.104858,555.079224 528.208191,578.832031 
	C528.507751,581.124695 529.899414,584.360596 525.681824,584.330200 
	C522.043823,584.304016 517.120300,586.345642 516.027588,580.284058 
	C515.172546,575.540955 514.436890,570.753662 514.067261,565.953674 
	C513.808594,562.594727 512.549011,561.461060 509.149719,561.489746 
	C501.121429,561.557556 501.120392,561.391174 500.034576,569.376892 
	C499.541443,573.003662 499.046478,576.630188 498.479492,580.650208 
M504.891266,531.447815 
	C504.290588,537.633972 503.689911,543.820068 503.062225,550.284546 
	C506.547546,550.284546 509.285522,550.284546 512.765564,550.284546 
	C510.412842,540.354614 511.496979,530.243896 507.767365,521.008240 
	C507.270111,521.034851 506.772888,521.061523 506.275635,521.088196 
	C505.811768,524.238403 505.347900,527.388672 504.891266,531.447815 
z"/>
<path fill="#EBE0ED" opacity="1.000000" stroke="none" 
	d="
M756.052612,495.499115 
	C756.903442,498.696503 757.746521,501.820435 757.495544,504.853882 
	C757.440674,505.516785 753.488098,506.244965 751.319763,506.280243 
	C740.091248,506.463074 740.061279,506.387543 739.858337,517.387268 
	C739.772522,522.040405 739.822327,526.696472 739.854431,531.350830 
	C739.857605,531.809631 740.170227,532.266296 740.529968,533.240173 
	C743.658997,533.240173 746.943848,533.278198 750.227478,533.230957 
	C754.773804,533.165588 754.431580,536.332764 754.607300,539.434448 
	C754.797668,542.794434 753.653076,544.199158 750.120422,544.321899 
	C739.751160,544.682373 739.738708,544.803589 739.921997,555.112183 
	C740.016663,560.438171 740.174500,565.763184 740.330078,571.087830 
	C740.344177,571.569336 740.550903,572.045166 740.821716,573.150269 
	C745.481628,573.150269 750.275879,573.315308 755.053467,573.103760 
	C759.809692,572.893127 759.261963,576.074280 759.455139,579.107056 
	C759.655701,582.254456 759.042786,584.154968 755.262634,584.216492 
	C747.630249,584.340637 740.002991,584.805298 732.375000,585.158203 
	C729.096008,585.309875 727.492493,584.057495 727.532349,580.514343 
	C727.676453,567.719482 727.790283,554.920898 727.632019,542.127197 
	C727.479797,529.824097 726.971558,517.525452 726.633057,505.224487 
	C726.587402,503.564819 726.663391,501.901520 726.607117,500.242462 
	C726.487671,496.717743 727.934692,495.180603 731.670227,495.284698 
	C739.658936,495.507324 747.657410,495.378204 756.052612,495.499115 
z"/>
<path fill="#EBE0ED" opacity="1.000000" stroke="none" 
	d="
M459.183319,495.744995 
	C465.652466,495.741211 471.651978,495.859222 477.643219,495.687775 
	C481.150970,495.587341 482.586243,497.008942 482.174103,500.430573 
	C481.822144,503.352386 482.989380,507.200317 477.684906,506.811157 
	C474.206512,506.555939 470.687469,506.902039 467.197418,506.742706 
	C464.565979,506.622620 463.590332,507.789276 463.600281,510.240601 
	C463.627960,517.052185 463.494415,523.868896 463.763062,530.670166 
	C463.803711,531.698792 465.502533,533.170898 466.702454,533.522034 
	C468.391144,534.016296 470.352203,533.838379 472.158173,533.623291 
	C476.910980,533.057190 478.753845,534.861877 478.500336,539.783264 
	C478.314880,543.383545 477.335388,544.999939 473.567963,544.718567 
	C470.466156,544.486877 467.333282,544.671326 464.222992,544.671326 
	C464.222992,554.468994 464.222992,563.573059 464.222992,573.494080 
	C469.069580,573.494080 473.515808,573.698242 477.934326,573.435913 
	C482.259888,573.179138 483.344727,575.200317 483.355408,579.121094 
	C483.365723,582.899719 482.175934,584.553894 478.198120,584.596558 
	C471.062836,584.672852 463.929779,585.132751 456.800568,585.520325 
	C452.993103,585.727234 451.335297,584.124023 451.377777,580.250977 
	C451.516510,567.615723 451.648651,554.977112 451.502625,542.343018 
	C451.362274,530.203857 450.873840,518.068726 450.531067,505.932068 
	C450.517029,505.434357 450.405212,504.940002 450.378601,504.441986 
	C449.932312,496.086304 450.247162,495.759186 459.183319,495.744995 
z"/>
<path fill="#ECE1ED" opacity="1.000000" stroke="none" 
	d="
M783.011841,584.144409 
	C779.059814,584.457642 775.594360,584.755005 772.132141,585.086975 
	C768.395081,585.445190 766.240417,584.530945 766.204407,580.022278 
	C765.998596,554.238586 765.524780,528.457092 765.220581,502.673950 
	C765.133545,495.298401 765.253296,495.296295 772.763672,495.286682 
	C779.260254,495.278381 785.760193,495.393982 792.252197,495.217468 
	C795.987366,495.115936 797.419556,496.651825 797.086243,500.288788 
	C796.808167,503.323730 797.689087,506.889404 792.473389,506.358948 
	C789.011902,506.006897 785.464294,506.099304 781.996460,506.428131 
	C780.755737,506.545807 778.643677,507.909088 778.615784,508.759247 
	C778.355042,516.699707 778.461243,524.652222 778.461243,533.199158 
	C782.128235,533.199158 785.237183,533.349487 788.325928,533.164001 
	C792.984009,532.884399 793.245422,535.782166 793.368530,539.287476 
	C793.491882,542.798828 792.551819,544.619751 788.629639,544.267700 
	C785.523926,543.989075 782.373230,544.211670 779.008423,544.211670 
	C779.008423,553.959412 779.008423,563.183777 779.008423,573.115112 
	C784.235718,573.115112 789.001282,573.278076 793.750610,573.069214 
	C798.488342,572.860779 798.016357,576.070740 798.194214,579.087158 
	C798.375305,582.157715 797.858459,584.362488 793.992493,584.166809 
	C790.503479,583.990234 786.997986,584.138672 783.011841,584.144409 
z"/>
<path fill="#EBE0EC" opacity="1.000000" stroke="none" 
	d="
M688.918823,564.995972 
	C688.912415,549.181824 688.850891,533.862793 688.726929,518.544312 
	C688.677124,512.390442 688.559875,506.235077 688.337891,500.085327 
	C688.215942,496.707214 689.509399,495.271851 693.013794,495.345276 
	C700.509949,495.502350 708.020325,495.594330 715.508545,495.298767 
	C720.815063,495.089294 719.621887,498.823608 720.039001,501.715515 
	C720.557495,505.310425 718.714722,506.489746 715.410706,506.414520 
	C711.913513,506.334961 708.347473,506.054016 704.941040,506.628693 
	C703.351929,506.896790 700.915527,508.909027 700.838806,510.244293 
	C700.429871,517.358521 700.646240,524.508728 700.646240,532.326477 
	C704.723755,532.326477 708.025879,532.455566 711.313721,532.293823 
	C715.450806,532.090332 715.790894,534.759155 715.932800,537.825256 
	C716.083313,541.077820 715.441223,543.548035 711.416931,543.296692 
	C711.251099,543.286316 711.083557,543.294556 710.917114,543.301331 
	C700.304138,543.733643 699.859497,544.399780 700.430054,555.405823 
	C700.834534,563.209290 700.673523,571.041260 701.026550,578.848633 
	C701.242188,583.617310 698.615662,584.144897 694.760254,584.331848 
	C690.607361,584.533142 688.427734,583.462097 688.640381,578.939209 
	C688.850891,574.463379 688.783936,569.974426 688.918823,564.995972 
z"/>
<path fill="#EADFEC" opacity="1.000000" stroke="none" 
	d="
M922.359131,503.243530 
	C920.885193,504.478699 919.566223,505.818756 918.073669,506.053040 
	C915.517395,506.454315 912.852539,506.163879 909.910095,506.163879 
	C909.910095,517.591614 909.898804,528.361023 909.912903,539.130371 
	C909.930603,552.621582 909.949707,566.112854 910.006470,579.603943 
	C910.036804,586.819214 904.399597,583.402710 901.195129,584.152466 
	C897.475708,585.022827 897.490662,582.238525 897.461365,579.494019 
	C897.216980,556.561157 896.835266,533.629700 896.600830,510.696808 
	C896.546326,505.370483 892.946167,505.628113 889.720093,506.450531 
	C885.399841,507.551849 883.490723,506.549805 883.304749,501.951233 
	C883.071045,496.174286 883.671692,495.205627 888.963684,495.174133 
	C897.628845,495.122559 906.294495,495.146149 914.959900,495.141174 
	C922.635010,495.136780 922.635010,495.138702 922.359131,503.243530 
z"/>
<path fill="#ECE1ED" opacity="1.000000" stroke="none" 
	d="
M634.165222,518.001221 
	C634.159790,517.013306 634.156372,516.513977 634.159058,516.014709 
	C634.208801,506.711639 634.210571,506.844818 625.044495,506.952484 
	C623.790588,506.967224 621.524170,504.945587 621.443787,503.751221 
	C621.257385,500.980835 619.147217,496.169495 623.703796,495.884430 
	C634.977051,495.179260 646.323425,495.381104 657.631165,495.632172 
	C661.434143,495.716614 660.036682,499.341766 660.186768,501.582153 
	C660.348755,504.000610 660.059326,506.292206 656.715027,506.511139 
	C653.658508,506.711121 649.299683,506.148010 647.926941,507.857788 
	C646.382202,509.781891 647.512085,513.873901 647.522827,517.022827 
	C647.593689,537.792542 647.670959,558.562256 647.759399,579.331970 
	C647.779846,584.126160 647.058350,584.435364 638.971191,584.581360 
	C635.187317,584.649658 635.210693,582.513428 635.173157,579.758362 
	C634.894348,559.334778 634.516663,538.912537 634.165222,518.001221 
z"/>
<path fill="#EBE0EC" opacity="1.000000" stroke="none" 
	d="
M803.977417,534.757935 
	C803.918640,523.131897 803.881409,511.978088 803.806519,500.824524 
	C803.786072,497.774109 803.933533,494.964630 808.158386,495.236511 
	C811.734985,495.466675 816.341980,493.807800 816.407043,500.087982 
	C816.543091,513.226074 816.795166,526.363098 816.894775,539.501404 
	C816.977966,550.466125 816.911865,561.431946 816.911865,573.082520 
	C822.509705,573.082520 827.456970,573.266418 832.383667,573.027466 
	C836.754761,572.815491 836.668579,575.578308 836.700928,578.554626 
	C836.734009,581.598816 836.640564,584.240173 832.374146,584.157349 
	C824.384827,584.002258 816.388611,584.024414 808.398682,584.164795 
	C805.031799,584.223999 804.321472,582.875671 804.333496,579.654297 
	C804.389038,564.846924 804.130615,550.038452 803.977417,534.757935 
z"/>
<path fill="#EADFEC" opacity="1.000000" stroke="none" 
	d="
M878.114502,555.999634 
	C878.079956,563.989624 877.782715,571.490845 878.098816,578.966125 
	C878.329468,584.421021 874.851807,584.066345 871.312988,584.335083 
	C867.540894,584.621460 865.244324,583.552002 865.264099,579.273804 
	C865.361084,558.322021 865.415710,537.369812 865.419739,516.417786 
	C865.420776,510.939301 865.282837,505.456268 865.025330,499.983948 
	C864.870117,496.684387 865.875977,495.161652 869.496643,495.105347 
	C878.034851,494.972656 877.961914,494.970062 877.922913,503.553192 
	C877.844177,520.868042 878.035034,538.184143 878.114502,555.999634 
z"/>
<path fill="#ECE1ED" opacity="1.000000" stroke="none" 
	d="
M602.996521,537.724854 
	C602.972595,524.988220 603.115051,512.692261 602.742188,500.412018 
	C602.594482,495.549438 605.145630,495.363434 608.637756,495.542969 
	C611.978210,495.714722 615.807312,494.467651 615.776917,500.293762 
	C615.638977,526.717407 615.649536,553.142883 615.822144,579.566284 
	C615.859924,585.350891 611.720032,584.176453 608.583374,584.596008 
	C604.568176,585.132935 602.943420,583.037842 602.966431,579.054138 
	C603.045105,565.427124 602.971802,551.799316 602.996521,537.724854 
z"/>
<path fill="#E3DAE7" opacity="1.000000" stroke="none" 
	d="
M326.123535,520.001099 
	C326.123505,554.618347 326.123505,588.735596 326.123505,622.852783 
	C325.527161,622.850098 324.930847,622.847412 324.334503,622.844727 
	C324.334503,568.360779 324.334503,513.876831 324.334503,459.367584 
	C324.412354,459.343018 324.561707,459.262573 324.713776,459.257019 
	C324.873566,459.251160 325.105865,459.261688 325.184875,459.361420 
	C325.482330,459.737091 325.961853,460.151062 325.963501,460.552338 
	C326.043762,480.201813 326.081329,499.851471 326.123535,520.001099 
z"/>
<path fill="#C4C0D0" opacity="1.000000" stroke="none" 
	d="
M178.066757,535.962891 
	C174.011215,540.760803 169.283707,538.013367 164.571777,537.429688 
	C159.329498,536.780334 156.998627,534.238892 157.921417,529.196655 
	C159.306244,521.629639 161.042969,514.127075 163.304718,506.346741 
	C164.302795,506.143341 164.626236,506.190338 164.830353,506.604492 
	C163.248550,513.891602 161.607346,520.782227 160.463577,527.754395 
	C160.213547,529.278564 161.479309,532.341919 162.492126,532.552185 
	C166.235336,533.329285 170.165024,533.208130 174.024628,533.424561 
	C173.634140,529.740723 173.263840,526.054565 172.827637,522.376160 
	C172.773178,521.916870 172.370117,521.498962 172.103271,521.067505 
	C172.077972,521.073181 172.061691,521.120972 172.392914,521.285583 
	C175.487274,521.342224 175.487274,521.342224 175.420425,515.707336 
	C176.876465,522.451660 178.332504,529.196045 179.501541,535.934875 
	C178.831940,535.940552 178.449341,535.951721 178.066757,535.962891 
z"/>
<path fill="#E3DAE7" opacity="1.000000" stroke="none" 
	d="
M218.225830,483.093414 
	C229.811829,483.583221 238.711075,490.050415 247.850739,496.854187 
	C248.010254,497.370697 248.008255,497.858368 247.669586,497.905457 
	C246.658340,497.856689 245.985748,497.760834 245.098419,497.414062 
	C243.774948,496.448120 242.666229,495.733093 241.367584,494.835144 
	C240.564209,494.307251 239.950745,493.962280 239.109222,493.389343 
	C237.741379,492.556915 236.601608,491.952515 235.237518,491.176178 
	C234.512390,490.741425 234.011581,490.478577 233.330353,490.083496 
	C232.888687,489.797638 232.608536,489.696289 232.029053,489.430298 
	C228.862305,488.881500 225.975937,488.549652 222.805664,488.123016 
	C222.323364,488.049866 222.125000,488.071533 221.462479,488.095581 
	C212.755295,488.126709 204.512238,488.155487 195.976776,488.036499 
	C195.090698,487.616425 194.497055,487.344116 193.547974,487.116638 
	C190.778488,488.416992 188.364441,489.672546 185.974579,490.964050 
	C185.998779,491.000000 185.956436,490.924835 185.603394,490.801544 
	C183.816513,491.757141 182.382690,492.836029 180.973633,493.956238 
	C180.998383,493.997559 180.944138,493.917725 180.637543,493.716980 
	C179.211349,494.316101 178.091766,495.115936 176.954010,495.913452 
	C176.935852,495.911133 176.926682,495.946594 176.586838,495.947021 
	C175.810333,496.605804 175.373672,497.264130 174.968384,497.957214 
	C174.999741,497.991943 174.934311,497.928741 174.557556,497.776642 
	C173.117676,497.784485 172.054535,497.944397 170.944611,497.795502 
	C170.886932,497.278717 170.876007,497.070770 170.865097,496.862793 
	C180.355164,489.667969 190.332062,483.529572 202.357025,482.738953 
	C200.502716,483.774567 198.844101,484.331421 197.185501,484.888275 
	C197.290955,485.101257 197.396393,485.314240 197.501846,485.527222 
	C205.666443,485.527222 213.831039,485.527222 221.995651,485.527222 
	C222.018021,485.270111 222.040405,485.013000 222.062775,484.755920 
	C220.783798,484.201752 219.504822,483.647583 218.225830,483.093414 
z"/>
<path fill="#A1A2B5" opacity="1.000000" stroke="none" 
	d="
M242.971741,538.030945 
	C242.089066,539.924927 240.610947,541.760010 240.416580,543.722168 
	C238.623795,561.821655 238.611603,579.835815 241.775696,597.892212 
	C243.713165,608.948669 244.684509,607.067566 233.361588,609.446167 
	C232.998230,608.785950 233.016846,608.514587 233.359192,608.114258 
	C238.968048,607.942688 241.080841,605.423279 239.986298,600.161804 
	C239.480499,597.730408 239.424530,595.207275 238.951630,592.766968 
	C235.495132,574.930542 236.798645,557.053772 238.517929,539.185852 
	C238.750992,536.763733 239.741501,534.414429 240.757980,532.161865 
	C241.747040,534.205200 242.359390,536.118042 242.971741,538.030945 
z"/>
<path fill="#A1A2B5" opacity="1.000000" stroke="none" 
	d="
M178.046417,536.405273 
	C178.449341,535.951721 178.831940,535.940552 179.678986,536.307983 
	C180.880875,548.251892 182.293976,559.825378 182.153366,571.380005 
	C182.028885,581.607422 180.211456,591.817993 179.060837,602.026855 
	C178.757401,604.718933 178.975357,606.972107 182.040787,608.133484 
	C182.082657,608.346252 182.080734,608.779968 182.080734,608.779968 
	C177.277237,608.801819 175.802719,606.592163 176.732483,601.855042 
	C180.967529,580.277771 180.926849,558.583557 178.046417,536.405273 
z"/>
<path fill="#C4C0D0" opacity="1.000000" stroke="none" 
	d="
M248.008255,497.858368 
	C248.008255,497.858368 248.010254,497.370697 248.037750,497.128418 
	C251.102356,500.520020 255.432938,503.705688 256.882751,507.889618 
	C259.238861,514.688904 260.313751,522.100586 260.804840,529.330139 
	C261.291931,536.501404 260.020386,537.162903 252.068695,536.926331 
	C250.316757,535.928955 249.197021,535.074646 248.490326,534.150696 
	C250.296295,533.985474 251.689224,533.890015 253.179428,534.085327 
	C254.384094,534.749451 255.491486,535.122742 256.598877,535.496033 
	C256.711243,535.140076 256.823578,534.784180 256.935944,534.428223 
	C256.325439,533.998840 255.714905,533.569458 255.527954,533.053345 
	C259.573059,532.351624 259.057251,529.498413 258.769470,527.167725 
	C258.224915,522.757629 257.286255,518.396973 256.538177,514.011169 
	C255.505951,507.959656 252.913513,502.765106 248.178467,498.492981 
	C248.137283,498.277588 248.008255,497.858368 248.008255,497.858368 
z"/>
<path fill="#C4C0D0" opacity="1.000000" stroke="none" 
	d="
M182.442993,608.893921 
	C182.080734,608.779968 182.082657,608.346252 182.472412,608.105774 
	C191.494492,609.577515 200.139008,610.661926 208.934540,608.973999 
	C210.518738,608.670044 212.238510,609.159241 213.888596,609.096191 
	C220.272446,608.852783 226.653412,608.533997 233.035461,608.243286 
	C233.016846,608.514587 232.998230,608.785950 232.964172,609.464905 
	C227.057709,610.285156 221.170547,610.768433 215.274597,611.090576 
	C209.330917,611.415344 203.353943,612.014587 197.437515,611.680237 
	C192.525436,611.402588 187.680115,609.943542 182.442993,608.893921 
z"/>
<path fill="#53607C" opacity="1.000000" stroke="none" 
	d="
M217.744858,483.079346 
	C219.504822,483.647583 220.783798,484.201752 222.062775,484.755920 
	C222.040405,485.013000 222.018021,485.270111 221.995651,485.527222 
	C213.831039,485.527222 205.666443,485.527222 197.501846,485.527222 
	C197.396393,485.314240 197.290955,485.101257 197.185501,484.888275 
	C198.844101,484.331421 200.502716,483.774567 202.509628,483.090515 
	C207.659927,482.997314 212.461899,483.031281 217.744858,483.079346 
z"/>
<path fill="#E3DAE7" opacity="1.000000" stroke="none" 
	d="
M243.171249,538.337769 
	C242.359390,536.118042 241.747040,534.205200 240.832184,531.733887 
	C241.085938,528.800720 241.642181,526.425903 242.198425,524.051086 
	C242.695740,524.153992 243.193069,524.256897 243.690399,524.359863 
	C243.907181,526.736084 243.869171,529.176575 244.445389,531.462158 
	C244.745468,532.652283 246.128860,533.569336 246.978210,534.936157 
	C246.632431,536.294495 246.331329,537.326538 246.030228,538.358521 
	C245.143738,538.453857 244.257248,538.549194 243.171249,538.337769 
z"/>
<path fill="#A1A2B5" opacity="1.000000" stroke="none" 
	d="
M170.542770,496.957642 
	C170.876007,497.070770 170.886932,497.278717 170.945312,498.011261 
	C170.992798,498.535858 170.975967,498.967133 170.718506,499.172913 
	C168.623917,501.664917 166.786789,503.951111 164.949661,506.237335 
	C164.626236,506.190338 164.302795,506.143341 163.491333,506.049225 
	C165.409027,503.018890 167.814728,500.035675 170.542770,496.957642 
z"/>
<path fill="#7E849B" opacity="1.000000" stroke="none" 
	d="
M401.225128,552.915405 
	C401.378967,556.249268 401.176514,559.663879 400.974060,563.078491 
	C400.507812,563.118469 400.041565,563.158447 399.575317,563.198425 
	C399.231354,560.148315 398.887360,557.098145 398.625488,553.621704 
	C399.428009,553.129028 400.148407,553.062561 401.225128,552.915405 
z"/>
<path fill="#A1A2B5" opacity="1.000000" stroke="none" 
	d="
M246.251312,538.342285 
	C246.331329,537.326538 246.632431,536.294495 247.105408,534.774292 
	C247.277283,534.286072 247.669754,534.161499 247.669754,534.161499 
	C247.669754,534.161499 248.077301,534.220398 248.077301,534.220398 
	C249.197021,535.074646 250.316757,535.928955 251.721741,536.894043 
	C250.162125,537.445190 248.317245,537.885620 246.251312,538.342285 
z"/>
<path fill="#7E849B" opacity="1.000000" stroke="none" 
	d="
M426.387695,555.852966 
	C426.463684,557.898560 426.285919,559.943604 426.108124,561.988647 
	C425.778717,561.992371 425.449341,561.996094 425.119934,561.999817 
	C424.874481,560.166504 424.629028,558.333252 424.504517,556.142212 
	C425.128296,555.807190 425.631073,555.829773 426.387695,555.852966 
z"/>
<path fill="#7E849B" opacity="1.000000" stroke="none" 
	d="
M405.346161,509.072205 
	C405.509796,510.999268 405.427399,513.152588 405.153046,515.651489 
	C405.007446,513.764221 405.053802,511.531342 405.346161,509.072205 
z"/>
<path fill="#7E849B" opacity="1.000000" stroke="none" 
	d="
M412.080750,545.020081 
	C411.848694,543.424805 411.938202,541.836121 412.027710,540.247375 
	C412.434357,540.198303 412.841003,540.149231 413.247620,540.100098 
	C413.443054,541.533020 413.638489,542.965881 413.758667,544.767151 
	C413.256378,545.099243 412.829315,545.062927 412.080750,545.020081 
z"/>
<path fill="#7E849B" opacity="1.000000" stroke="none" 
	d="
M403.341736,530.055176 
	C403.483704,531.663391 403.380188,533.482788 403.108887,535.648926 
	C402.992828,534.085876 403.044556,532.176086 403.341736,530.055176 
z"/>
<path fill="#7E849B" opacity="1.000000" stroke="none" 
	d="
M414.806244,560.304260 
	C415.253571,561.784424 415.539917,563.564758 415.756897,565.737061 
	C415.340118,564.287476 414.992676,562.445923 414.806244,560.304260 
z"/>
<path fill="#7E849B" opacity="1.000000" stroke="none" 
	d="
M402.315002,542.048401 
	C402.465607,543.658386 402.370789,545.479614 402.108917,547.648315 
	C401.984436,546.083679 402.027039,544.171692 402.315002,542.048401 
z"/>
<path fill="#7E849B" opacity="1.000000" stroke="none" 
	d="
M383.843506,527.277710 
	C384.291290,528.455444 384.581696,529.911011 384.803833,531.739746 
	C384.385773,530.593872 384.035980,529.074707 383.843506,527.277710 
z"/>
<path fill="#7E849B" opacity="1.000000" stroke="none" 
	d="
M385.894653,545.243774 
	C386.326416,546.131287 386.603668,547.269043 386.811768,548.758606 
	C386.408447,547.904968 386.074310,546.699463 385.894653,545.243774 
z"/>
<path fill="#7E849B" opacity="1.000000" stroke="none" 
	d="
M404.382263,520.025635 
	C404.532166,521.028809 404.451080,522.206177 404.189270,523.692139 
	C404.056152,522.733765 404.103699,521.466858 404.382263,520.025635 
z"/>
<path fill="#7E849B" opacity="1.000000" stroke="none" 
	d="
M415.824036,571.250549 
	C416.210632,572.161560 416.440918,573.320679 416.583801,574.830261 
	C416.220154,573.953369 415.943970,572.726013 415.824036,571.250549 
z"/>
<path fill="#7E849B" opacity="1.000000" stroke="none" 
	d="
M382.855835,518.249146 
	C383.259827,519.149902 383.510712,520.301025 383.678741,521.803833 
	C383.298157,520.936890 383.000427,519.718140 382.855835,518.249146 
z"/>
<path fill="#7E849B" opacity="1.000000" stroke="none" 
	d="
M387.830139,560.252075 
	C388.251770,561.148560 388.520203,562.295227 388.713867,563.792725 
	C388.318451,562.929871 387.997711,561.716064 387.830139,560.252075 
z"/>
<path fill="#7E849B" opacity="1.000000" stroke="none" 
	d="
M444.850891,499.999786 
	C444.455170,499.104584 444.267700,498.008392 443.970154,496.507812 
	C444.259796,497.335205 444.659454,498.567017 444.850891,499.999786 
z"/>
<path fill="#7E849B" opacity="1.000000" stroke="none" 
	d="
M432.459595,497.014282 
	C432.593201,498.050201 432.464966,499.223145 432.150452,500.696564 
	C432.042053,499.715118 432.119904,498.433197 432.459595,497.014282 
z"/>
<path fill="#7E849B" opacity="1.000000" stroke="none" 
	d="
M386.885803,553.247925 
	C387.320374,554.131592 387.605652,555.267639 387.820068,556.755859 
	C387.411652,555.905457 387.074097,554.702881 386.885803,553.247925 
z"/>
<path fill="#7E849B" opacity="1.000000" stroke="none" 
	d="
M384.866211,536.249512 
	C385.271515,537.148376 385.526093,538.298828 385.696350,539.799927 
	C385.313141,538.934082 385.014313,537.717590 384.866211,536.249512 
z"/>
<path fill="#7E849B" opacity="1.000000" stroke="none" 
	d="
M428.333038,537.014832 
	C428.496490,538.021179 428.431519,539.204041 428.178314,540.693115 
	C428.028229,539.729919 428.066406,538.460693 428.333038,537.014832 
z"/>
<path fill="#7E849B" opacity="1.000000" stroke="none" 
	d="
M427.306824,547.006348 
	C427.473663,548.013550 427.410278,549.195679 427.167603,550.688477 
	C427.017761,549.726501 427.047150,548.453918 427.306824,547.006348 
z"/>
<path fill="#7E849B" opacity="1.000000" stroke="none" 
	d="
M380.834290,502.253967 
	C381.256470,503.143036 381.525726,504.284485 381.736633,505.779297 
	C381.345947,504.923889 381.013641,503.715118 380.834290,502.253967 
z"/>
<path fill="#7E849B" opacity="1.000000" stroke="none" 
	d="
M440.832397,538.029907 
	C440.669098,537.324524 440.698029,536.450439 440.902039,535.291199 
	C441.059631,535.957764 441.042145,536.909424 440.832397,538.029907 
z"/>
<path fill="#7E849B" opacity="1.000000" stroke="none" 
	d="
M388.907715,568.210815 
	C389.286346,568.831787 389.521576,569.670166 389.674927,570.832275 
	C389.316833,570.246826 389.040588,569.337463 388.907715,568.210815 
z"/>
<path fill="#7E849B" opacity="1.000000" stroke="none" 
	d="
M429.203735,527.956787 
	C429.394501,528.682251 429.373383,529.558472 429.172546,530.717102 
	C428.992493,530.035522 428.992218,529.071594 429.203735,527.956787 
z"/>
<path fill="#7E849B" opacity="1.000000" stroke="none" 
	d="
M424.212189,549.751099 
	C423.875122,549.148987 423.674988,548.307312 423.578552,547.220276 
	C423.904541,547.820435 424.126831,548.665955 424.212189,549.751099 
z"/>
<path fill="#7E849B" opacity="1.000000" stroke="none" 
	d="
M389.891479,577.210693 
	C390.262573,577.834717 390.485016,578.674622 390.639160,579.838867 
	C390.294861,579.250977 390.018860,578.338806 389.891479,577.210693 
z"/>
<path fill="#7E849B" opacity="1.000000" stroke="none" 
	d="
M430.189789,517.957825 
	C430.380768,518.680725 430.363983,519.557983 430.164001,520.716797 
	C429.981171,520.036377 429.981598,519.074219 430.189789,517.957825 
z"/>
<path fill="#7E849B" opacity="1.000000" stroke="none" 
	d="
M381.864716,509.215454 
	C382.246857,509.841248 382.487793,510.683289 382.630035,511.848083 
	C382.262085,511.257782 381.992798,510.344696 381.864716,509.215454 
z"/>
<path fill="#7E849B" opacity="1.000000" stroke="none" 
	d="
M441.795380,529.022095 
	C441.633820,528.321594 441.663513,527.450806 441.861511,526.291138 
	C442.015411,526.952087 442.001038,527.901978 441.795380,529.022095 
z"/>
<path fill="#7E849B" opacity="1.000000" stroke="none" 
	d="
M406.335754,499.976562 
	C406.495972,500.707642 406.435486,501.579468 406.184998,502.725464 
	C406.035004,502.038849 406.075043,501.078125 406.335754,499.976562 
z"/>
<path fill="#7E849B" opacity="1.000000" stroke="none" 
	d="
M443.786743,510.029419 
	C443.619415,509.317871 443.652527,508.444122 443.862488,507.286743 
	C444.021973,507.957825 444.004547,508.912506 443.786743,510.029419 
z"/>
<path fill="#7E849B" opacity="1.000000" stroke="none" 
	d="
M431.177307,507.954102 
	C431.372925,508.678375 431.357971,509.555817 431.165527,510.716125 
	C430.980927,510.035095 430.973816,509.071198 431.177307,507.954102 
z"/>
<path fill="#7E849B" opacity="1.000000" stroke="none" 
	d="
M442.820770,519.035278 
	C442.653564,518.322693 442.686981,517.447815 442.895020,516.289307 
	C443.053528,516.961426 443.037445,517.917175 442.820770,519.035278 
z"/>
<path fill="#7E849B" opacity="1.000000" stroke="none" 
	d="
M419.151031,499.827667 
	C418.838440,499.454834 418.658875,498.911804 418.544434,498.083496 
	C418.834412,498.417969 419.059265,499.037720 419.151031,499.827667 
z"/>
<path fill="#7E849B" opacity="1.000000" stroke="none" 
	d="
M436.866943,569.073364 
	C436.711029,568.632446 436.723022,568.061157 436.900696,567.247559 
	C437.055878,567.651123 437.045319,568.297119 436.866943,569.073364 
z"/>
<path fill="#7E849B" opacity="1.000000" stroke="none" 
	d="
M408.900330,577.066162 
	C408.734833,576.634338 408.724640,576.063721 408.873901,575.247803 
	C409.040802,575.644104 409.048218,576.285828 408.900330,577.066162 
z"/>
<path fill="#7E849B" opacity="1.000000" stroke="none" 
	d="
M410.930115,555.868286 
	C410.750519,555.464417 410.735138,554.899353 410.865570,554.167603 
	C411.039032,554.569580 411.066650,555.138306 410.930115,555.868286 
z"/>
<path fill="#7E849B" opacity="1.000000" stroke="none" 
	d="
M413.878815,553.187317 
	C414.266266,553.506226 414.533142,554.012512 414.789185,554.810181 
	C414.438354,554.525940 414.098297,553.950317 413.878815,553.187317 
z"/>
<path fill="#7E849B" opacity="1.000000" stroke="none" 
	d="
M416.862274,581.178772 
	C417.212799,581.529480 417.429260,582.058594 417.610901,582.877075 
	C417.293488,582.563354 417.010834,581.960205 416.862274,581.178772 
z"/>
<path fill="#7E849B" opacity="1.000000" stroke="none" 
	d="
M438.831726,554.071594 
	C438.658752,553.627991 438.656555,553.056274 438.820251,552.241699 
	C438.991577,552.647034 438.997009,553.295288 438.831726,554.071594 
z"/>
<path fill="#7E849B" opacity="1.000000" stroke="none" 
	d="
M439.821167,546.071106 
	C439.653290,545.626953 439.657166,545.055176 439.828857,544.241638 
	C439.995422,544.647705 439.994141,545.295654 439.821167,546.071106 
z"/>
<path fill="#7E849B" opacity="1.000000" stroke="none" 
	d="
M420.158691,509.830963 
	C419.851349,509.448578 419.672638,508.900909 419.591827,508.074463 
	C419.888916,508.419006 420.088135,509.042328 420.158691,509.830963 
z"/>
<path fill="#7E849B" opacity="1.000000" stroke="none" 
	d="
M423.187103,539.806152 
	C422.908997,539.452942 422.763123,538.912598 422.722717,538.179016 
	C422.991943,538.530151 423.155640,539.074585 423.187103,539.806152 
z"/>
<path fill="#7E849B" opacity="1.000000" stroke="none" 
	d="
M395.162445,513.806396 
	C394.873718,513.452454 394.711304,512.909241 394.656708,512.172852 
	C394.939270,512.525452 395.114044,513.071289 395.162445,513.806396 
z"/>
<path fill="#7E849B" opacity="1.000000" stroke="none" 
	d="
M421.175781,519.830750 
	C420.878967,519.445862 420.715302,518.896851 420.643585,518.068604 
	C420.926697,518.415161 421.117828,519.040894 421.175781,519.830750 
z"/>
<path fill="#7E849B" opacity="1.000000" stroke="none" 
	d="
M422.181519,529.828491 
	C421.890686,529.445007 421.730194,528.896301 421.658813,528.067993 
	C421.935913,528.413391 422.123871,529.038391 422.181519,529.828491 
z"/>
<path fill="#53607C" opacity="1.000000" stroke="none" 
	d="
M554.106079,536.157471 
	C551.938416,536.254028 550.151855,536.254028 547.728943,536.254028 
	C547.728943,526.762695 547.728943,517.536011 547.728943,508.240417 
	C556.650269,506.219543 559.838989,508.700745 559.983154,518.002197 
	C560.032104,521.163025 559.971985,524.333130 560.200684,527.481689 
	C560.521667,531.901550 559.000977,534.937500 554.106079,536.157471 
z"/>
<path fill="#53607C" opacity="1.000000" stroke="none" 
	d="
M504.887634,530.993347 
	C505.347900,527.388672 505.811768,524.238403 506.275635,521.088196 
	C506.772888,521.061523 507.270111,521.034851 507.767365,521.008240 
	C511.496979,530.243896 510.412842,540.354614 512.765564,550.284546 
	C509.285522,550.284546 506.547546,550.284546 503.062225,550.284546 
	C503.689911,543.820068 504.290588,537.633972 504.887634,530.993347 
z"/>
<path fill="#495875" opacity="1.000000" stroke="none" 
	d="
M248.490326,534.150696 
	C248.077301,534.220398 247.669754,534.161499 247.669754,534.161499 
	C247.669754,534.161499 247.277283,534.286072 247.150085,534.447876 
	C246.128860,533.569336 244.745468,532.652283 244.445389,531.462158 
	C243.869171,529.176575 243.907181,526.736084 243.690399,524.359863 
	C243.193069,524.256897 242.695740,524.153992 242.198425,524.051086 
	C241.642181,526.425903 241.085938,528.800720 240.455475,531.603516 
	C239.741501,534.414429 238.750992,536.763733 238.517929,539.185852 
	C236.798645,557.053772 235.495132,574.930542 238.951630,592.766968 
	C239.424530,595.207275 239.480499,597.730408 239.986298,600.161804 
	C241.080841,605.423279 238.968048,607.942688 233.359192,608.114258 
	C226.653412,608.533997 220.272446,608.852783 213.888596,609.096191 
	C212.238510,609.159241 210.518738,608.670044 208.934540,608.973999 
	C200.139008,610.661926 191.494492,609.577515 182.430542,607.893005 
	C178.975357,606.972107 178.757401,604.718933 179.060837,602.026855 
	C180.211456,591.817993 182.028885,581.607422 182.153366,571.380005 
	C182.293976,559.825378 180.880875,548.251892 179.966003,536.313477 
	C178.332504,529.196045 176.876465,522.451660 175.420425,515.707336 
	C175.487274,521.342224 175.487274,521.342224 172.092468,521.205688 
	C171.264145,520.623352 171.067490,520.285461 170.532532,520.034119 
	C170.130325,519.744324 170.066422,519.367981 169.865616,519.058472 
	C169.809204,519.072083 169.889694,519.018799 170.244659,518.952271 
	C170.655411,519.255493 170.791702,519.572021 171.184021,520.020996 
	C171.669556,520.456238 171.899078,520.759033 172.128571,521.061890 
	C172.370117,521.498962 172.773178,521.916870 172.827637,522.376160 
	C173.263840,526.054565 173.634140,529.740723 174.024628,533.424561 
	C170.165024,533.208130 166.235336,533.329285 162.492126,532.552185 
	C161.479309,532.341919 160.213547,529.278564 160.463577,527.754395 
	C161.607346,520.782227 163.248550,513.891602 164.830353,506.604492 
	C166.786789,503.951111 168.623917,501.664917 171.070221,499.193970 
	C172.379913,499.011841 173.080429,499.014374 173.759247,499.372559 
	C175.174332,499.445435 176.734436,499.429901 178.026230,498.833313 
	C183.295349,496.399902 188.482361,493.788727 193.861038,491.527283 
	C195.828094,493.533051 197.633774,495.254608 199.632202,497.254242 
	C200.229126,497.706482 200.633331,497.880646 200.972595,498.008667 
	C200.907639,497.962555 200.810150,498.088562 201.000214,498.386414 
	C208.665451,503.534271 211.837616,503.420929 218.708542,497.868225 
	C221.088318,495.547699 223.225555,493.426025 225.702271,491.333527 
	C232.344193,494.559296 238.646622,497.755920 245.262695,500.842224 
	C246.457443,500.057404 247.338531,499.382904 248.219635,498.708374 
	C252.913513,502.765106 255.505951,507.959656 256.538177,514.011169 
	C257.286255,518.396973 258.224915,522.757629 258.769470,527.167725 
	C259.057251,529.498413 259.573059,532.351624 255.252045,533.033936 
	C254.062424,533.332397 253.572296,533.563477 253.082153,533.794556 
	C251.689224,533.890015 250.296295,533.985474 248.490326,534.150696 
z"/>
<path fill="#495875" opacity="1.000000" stroke="none" 
	d="
M196.269196,488.184265 
	C204.512238,488.155487 212.755295,488.126709 221.645889,488.244995 
	C222.536591,488.594055 222.762451,488.813812 222.973892,489.021820 
	C222.976730,488.992340 222.922684,489.016602 222.845154,489.334961 
	C222.617325,490.063690 222.467010,490.474091 222.053223,491.031067 
	C219.806702,492.724274 217.823669,494.270905 215.491699,495.950378 
	C210.957672,499.588806 206.972916,498.136414 202.846710,495.348419 
	C200.728561,493.684052 198.795898,492.265167 196.777222,490.514709 
	C196.550537,489.516876 196.409866,488.850586 196.269196,488.184265 
z"/>
<path fill="#C4C0D0" opacity="1.000000" stroke="none" 
	d="
M195.976776,488.036499 
	C196.409866,488.850586 196.550537,489.516876 196.250275,490.583801 
	C195.106110,491.070618 194.402878,491.156860 193.699646,491.243103 
	C188.482361,493.788727 183.295349,496.399902 178.026230,498.833313 
	C176.734436,499.429901 175.174332,499.445435 174.044876,499.298401 
	C174.546219,498.555359 174.740265,498.242065 174.934311,497.928741 
	C174.934311,497.928741 174.999741,497.991943 175.319565,497.979553 
	C176.068481,497.293640 176.497574,496.620117 176.926666,495.946594 
	C176.926682,495.946594 176.935852,495.911133 177.263367,496.122009 
	C178.708633,495.527832 179.826385,494.722778 180.944138,493.917725 
	C180.944138,493.917725 180.998383,493.997559 181.318939,494.003021 
	C183.078491,492.980591 184.517456,491.952728 185.956436,490.924835 
	C185.956436,490.924835 185.998779,491.000000 186.353867,491.021912 
	C189.107101,489.719818 191.505249,488.395813 193.903397,487.071808 
	C194.497055,487.344116 195.090698,487.616425 195.976776,488.036499 
z"/>
<path fill="#7E849B" opacity="1.000000" stroke="none" 
	d="
M223.089584,488.217773 
	C225.975937,488.549652 228.862305,488.881500 231.792740,489.725281 
	C231.679337,490.433929 231.521835,490.630646 231.003159,490.691986 
	C228.068878,490.043274 225.495773,489.529938 222.922684,489.016602 
	C222.922684,489.016602 222.976730,488.992340 222.997375,488.812622 
	C223.018005,488.632904 223.089584,488.217773 223.089584,488.217773 
z"/>
<path fill="#7E849B" opacity="1.000000" stroke="none" 
	d="
M193.547974,487.116638 
	C191.505249,488.395813 189.107101,489.719818 186.329666,490.985962 
	C188.364441,489.672546 190.778488,488.416992 193.547974,487.116638 
z"/>
<path fill="#7E849B" opacity="1.000000" stroke="none" 
	d="
M185.603394,490.801544 
	C184.517456,491.952728 183.078491,492.980591 181.294189,493.961731 
	C182.382690,492.836029 183.816513,491.757141 185.603394,490.801544 
z"/>
<path fill="#7E849B" opacity="1.000000" stroke="none" 
	d="
M248.178467,498.492981 
	C247.338531,499.382904 246.457443,500.057404 245.295990,500.542450 
	C244.775803,499.820251 244.535965,499.287476 244.550415,498.482300 
	C244.974182,498.028259 245.143677,497.846619 245.313171,497.664978 
	C245.985748,497.760834 246.658340,497.856689 247.669586,497.905457 
	C248.008255,497.858368 248.137283,498.277588 248.178467,498.492981 
z"/>
<path fill="#7E849B" opacity="1.000000" stroke="none" 
	d="
M241.557510,495.018066 
	C242.666229,495.733093 243.774948,496.448120 245.098419,497.414062 
	C245.143677,497.846619 244.974182,498.028259 244.285126,498.326508 
	C242.752563,497.737061 241.739548,497.031006 240.937195,496.000061 
	C241.284424,495.456177 241.420959,495.237122 241.557510,495.018066 
z"/>
<path fill="#7E849B" opacity="1.000000" stroke="none" 
	d="
M180.637543,493.716980 
	C179.826385,494.722778 178.708633,495.527832 177.281540,496.124359 
	C178.091766,495.115936 179.211349,494.316101 180.637543,493.716980 
z"/>
<path fill="#7E849B" opacity="1.000000" stroke="none" 
	d="
M235.461823,491.348114 
	C236.601608,491.952515 237.741379,492.556915 238.846191,493.681488 
	C238.635849,494.396362 238.460464,494.591125 238.019104,494.630554 
	C236.713242,493.802429 235.673370,493.129639 234.842285,492.180908 
	C235.187973,491.719360 235.324905,491.533752 235.461823,491.348114 
z"/>
<path fill="#7E849B" opacity="1.000000" stroke="none" 
	d="
M176.586823,495.947021 
	C176.497574,496.620117 176.068481,497.293640 175.288208,497.944824 
	C175.373672,497.264130 175.810333,496.605804 176.586823,495.947021 
z"/>
<path fill="#7E849B" opacity="1.000000" stroke="none" 
	d="
M174.557556,497.776642 
	C174.740265,498.242065 174.546219,498.555359 174.066559,498.942810 
	C173.080429,499.014374 172.379913,499.011841 171.327698,498.988220 
	C170.975967,498.967133 170.992798,498.535858 170.992096,498.320099 
	C172.054535,497.944397 173.117676,497.784485 174.557556,497.776642 
z"/>
<path fill="#7E849B" opacity="1.000000" stroke="none" 
	d="
M239.074249,493.909485 
	C239.950745,493.962280 240.564209,494.307251 241.367584,494.835144 
	C241.420959,495.237122 241.284424,495.456177 240.673065,495.881592 
	C239.560532,495.653931 238.922821,495.219879 238.285095,494.785858 
	C238.460464,494.591125 238.635849,494.396362 239.074249,493.909485 
z"/>
<path fill="#7E849B" opacity="1.000000" stroke="none" 
	d="
M233.510757,490.215759 
	C234.011581,490.478577 234.512390,490.741425 235.237518,491.176178 
	C235.324905,491.533752 235.187973,491.719360 234.585678,492.063538 
	C233.640121,491.929779 233.159943,491.637482 232.890823,491.065277 
	C233.238159,490.595490 233.374451,490.405609 233.510757,490.215759 
z"/>
<path fill="#A1A2B5" opacity="1.000000" stroke="none" 
	d="
M222.805664,488.122986 
	C223.089584,488.217773 223.018005,488.632904 222.994537,488.842102 
	C222.762451,488.813812 222.536591,488.594055 222.110031,488.242615 
	C222.125000,488.071533 222.323364,488.049866 222.805664,488.122986 
z"/>
<path fill="#7E849B" opacity="1.000000" stroke="none" 
	d="
M232.073151,489.942230 
	C232.608536,489.696289 232.888687,489.797638 233.330353,490.083496 
	C233.374451,490.405609 233.238159,490.595490 232.666458,490.992798 
	C231.933685,491.095642 231.644791,490.971344 231.364334,490.827362 
	C231.521835,490.630646 231.679337,490.433929 232.073151,489.942230 
z"/>
<path fill="#A1A2B5" opacity="1.000000" stroke="none" 
	d="
M253.179428,534.085327 
	C253.572296,533.563477 254.062424,533.332397 254.828461,533.120728 
	C255.714905,533.569458 256.325439,533.998840 256.935944,534.428223 
	C256.823578,534.784180 256.711243,535.140076 256.598877,535.496033 
	C255.491486,535.122742 254.384094,534.749451 253.179428,534.085327 
z"/>
<path fill="#C4C0D0" opacity="1.000000" stroke="none" 
	d="
M203.032196,495.593872 
	C206.972916,498.136414 210.957672,499.588806 215.732529,496.201233 
	C217.036850,496.901794 217.751419,497.484436 218.465988,498.067047 
	C211.837616,503.420929 208.665451,503.534271 201.305115,498.215271 
	C201.957352,497.028809 202.494766,496.311340 203.032196,495.593872 
M208.508408,500.473816 
	C208.508408,500.473816 208.471695,500.486755 208.508408,500.473816 
z"/>
<path fill="#C4C0D0" opacity="1.000000" stroke="none" 
	d="
M231.003159,490.691986 
	C231.644791,490.971344 231.933685,491.095642 232.455414,491.272736 
	C233.159943,491.637482 233.640121,491.929779 234.376892,492.339447 
	C235.673370,493.129639 236.713242,493.802429 238.019104,494.630554 
	C238.922821,495.219879 239.560532,495.653931 240.462402,496.206421 
	C241.739548,497.031006 242.752563,497.737061 244.030853,498.598938 
	C244.535965,499.287476 244.775803,499.820251 244.982330,500.652771 
	C238.646622,497.755920 232.344193,494.559296 225.195587,491.256561 
	C223.671844,491.061768 222.994278,490.973145 222.316711,490.884521 
	C222.467010,490.474091 222.617325,490.063690 222.845154,489.334961 
	C225.495773,489.529938 228.068878,490.043274 231.003159,490.691986 
z"/>
<path fill="#A1A2B5" opacity="1.000000" stroke="none" 
	d="
M202.846710,495.348419 
	C202.494766,496.311340 201.957352,497.028809 201.115036,497.917419 
	C200.810150,498.088562 200.907639,497.962555 200.708893,497.824707 
	C200.153244,497.449951 199.796341,497.213074 199.439453,496.976166 
	C197.633774,495.254608 195.828094,493.533051 193.861053,491.527313 
	C194.402878,491.156860 195.106110,491.070618 196.336288,490.915314 
	C198.795898,492.265167 200.728561,493.684052 202.846710,495.348419 
z"/>
<path fill="#A1A2B5" opacity="1.000000" stroke="none" 
	d="
M222.053207,491.031067 
	C222.994278,490.973145 223.671844,491.061768 224.856110,491.227386 
	C223.225555,493.426025 221.088318,495.547699 218.708542,497.868225 
	C217.751419,497.484436 217.036850,496.901794 216.081451,496.068359 
	C217.823669,494.270905 219.806702,492.724274 222.053207,491.031067 
z"/>
<path fill="#C4C0D0" opacity="1.000000" stroke="none" 
	d="
M199.632187,497.254242 
	C199.796341,497.213074 200.153244,497.449951 200.773834,497.870819 
	C200.633331,497.880646 200.229126,497.706482 199.632187,497.254242 
z"/>
<path fill="#C4C0D0" opacity="1.000000" stroke="none" 
	d="
M169.970184,518.965515 
	C169.889694,519.018799 169.809204,519.072083 169.850204,519.053467 
	C169.971695,518.981567 169.970169,518.965515 169.970184,518.965515 
z"/>
<path fill="#C4C0D0" opacity="1.000000" stroke="none" 
	d="
M170.927994,519.888550 
	C170.791702,519.572021 170.655411,519.255493 170.244644,518.952271 
	C169.970169,518.965515 169.971695,518.981567 169.987106,518.986572 
	C170.066422,519.367981 170.130325,519.744324 170.555695,520.029175 
	C170.917191,519.937683 170.927994,519.888550 170.927994,519.888550 
z"/>
<path fill="#C4C0D0" opacity="1.000000" stroke="none" 
	d="
M172.103271,521.067505 
	C171.899078,520.759033 171.669556,520.456238 171.184021,520.020996 
	C170.927994,519.888550 170.917191,519.937683 170.894012,519.942627 
	C171.067490,520.285461 171.264145,520.623352 171.761230,521.041138 
	C172.061691,521.120972 172.077972,521.073181 172.103271,521.067505 
z"/>
<path fill="#A1A2B5" opacity="1.000000" stroke="none" 
	d="
M208.490051,500.480286 
	C208.471695,500.486755 208.508408,500.473816 208.490051,500.480286 
z"/>
</svg>